<mxfile host="www.draw.io" modified="2020-01-21T10:35:47.481Z" agent="Mozilla/5.0 (Windows NT 10.0; Win64; x64) AppleWebKit/537.36 (KHTML, like Gecko) Chrome/79.0.3945.117 Safari/537.36" etag="Ah9qNk6H77IL_oG5IbvW" version="12.5.5" type="github">
  <diagram id="C5RBs43oDa-KdzZeNtuy" name="Page-1">
    <mxGraphModel dx="1296" dy="722" grid="1" gridSize="20" guides="1" tooltips="1" connect="1" arrows="1" fold="1" page="1" pageScale="1" pageWidth="1654" pageHeight="1169" background="#FFFFCC" math="0" shadow="1">
      <root>
        <mxCell id="WIyWlLk6GJQsqaUBKTNV-0"/>
        <mxCell id="WIyWlLk6GJQsqaUBKTNV-1" parent="WIyWlLk6GJQsqaUBKTNV-0"/>
        <mxCell id="Qnue6MiDW5Upj04BYutE-4" value="" style="edgeStyle=orthogonalEdgeStyle;rounded=0;orthogonalLoop=1;jettySize=auto;html=1;" parent="WIyWlLk6GJQsqaUBKTNV-1" source="Qnue6MiDW5Upj04BYutE-1" target="Qnue6MiDW5Upj04BYutE-2" edge="1">
          <mxGeometry relative="1" as="geometry"/>
        </mxCell>
        <mxCell id="Qnue6MiDW5Upj04BYutE-1" value="Start" style="ellipse;whiteSpace=wrap;html=1;" parent="WIyWlLk6GJQsqaUBKTNV-1" vertex="1">
          <mxGeometry x="10" y="10" width="120" height="80" as="geometry"/>
        </mxCell>
        <mxCell id="Qnue6MiDW5Upj04BYutE-6" value="" style="edgeStyle=orthogonalEdgeStyle;rounded=0;orthogonalLoop=1;jettySize=auto;html=1;" parent="WIyWlLk6GJQsqaUBKTNV-1" source="Qnue6MiDW5Upj04BYutE-2" target="Qnue6MiDW5Upj04BYutE-5" edge="1">
          <mxGeometry relative="1" as="geometry"/>
        </mxCell>
        <mxCell id="Qnue6MiDW5Upj04BYutE-8" value="" style="edgeStyle=orthogonalEdgeStyle;rounded=0;orthogonalLoop=1;jettySize=auto;html=1;" parent="WIyWlLk6GJQsqaUBKTNV-1" source="Qnue6MiDW5Upj04BYutE-2" target="Qnue6MiDW5Upj04BYutE-7" edge="1">
          <mxGeometry relative="1" as="geometry"/>
        </mxCell>
        <mxCell id="Qnue6MiDW5Upj04BYutE-2" value="Log In&amp;nbsp;&lt;br&gt;or&amp;nbsp;&lt;br&gt;Sign Up" style="rhombus;whiteSpace=wrap;html=1;" parent="WIyWlLk6GJQsqaUBKTNV-1" vertex="1">
          <mxGeometry x="30" y="120" width="80" height="80" as="geometry"/>
        </mxCell>
        <mxCell id="EfqY29eq7TwNeIXBNxIb-1" value="" style="edgeStyle=orthogonalEdgeStyle;rounded=0;orthogonalLoop=1;jettySize=auto;html=1;" parent="WIyWlLk6GJQsqaUBKTNV-1" source="Qnue6MiDW5Upj04BYutE-5" target="EfqY29eq7TwNeIXBNxIb-0" edge="1">
          <mxGeometry relative="1" as="geometry"/>
        </mxCell>
        <mxCell id="Qnue6MiDW5Upj04BYutE-5" value="Sign UP" style="whiteSpace=wrap;html=1;aspect=fixed;" parent="WIyWlLk6GJQsqaUBKTNV-1" vertex="1">
          <mxGeometry x="170" y="120" width="80" height="80" as="geometry"/>
        </mxCell>
        <mxCell id="EfqY29eq7TwNeIXBNxIb-19" value="" style="edgeStyle=orthogonalEdgeStyle;rounded=0;orthogonalLoop=1;jettySize=auto;html=1;" parent="WIyWlLk6GJQsqaUBKTNV-1" source="Qnue6MiDW5Upj04BYutE-7" target="EfqY29eq7TwNeIXBNxIb-18" edge="1">
          <mxGeometry relative="1" as="geometry">
            <Array as="points">
              <mxPoint x="70" y="360"/>
              <mxPoint x="70" y="360"/>
            </Array>
          </mxGeometry>
        </mxCell>
        <mxCell id="Qnue6MiDW5Upj04BYutE-7" value="Log In" style="whiteSpace=wrap;html=1;aspect=fixed;" parent="WIyWlLk6GJQsqaUBKTNV-1" vertex="1">
          <mxGeometry x="30" y="230" width="80" height="80" as="geometry"/>
        </mxCell>
        <mxCell id="EfqY29eq7TwNeIXBNxIb-6" value="" style="edgeStyle=orthogonalEdgeStyle;rounded=0;orthogonalLoop=1;jettySize=auto;html=1;" parent="WIyWlLk6GJQsqaUBKTNV-1" source="EfqY29eq7TwNeIXBNxIb-0" target="EfqY29eq7TwNeIXBNxIb-5" edge="1">
          <mxGeometry relative="1" as="geometry"/>
        </mxCell>
        <mxCell id="EfqY29eq7TwNeIXBNxIb-0" value="&quot;Set Username&quot;" style="shape=parallelogram;perimeter=parallelogramPerimeter;whiteSpace=wrap;html=1;" parent="WIyWlLk6GJQsqaUBKTNV-1" vertex="1">
          <mxGeometry x="290" y="130" width="120" height="60" as="geometry"/>
        </mxCell>
        <mxCell id="EfqY29eq7TwNeIXBNxIb-9" value="" style="edgeStyle=orthogonalEdgeStyle;rounded=0;orthogonalLoop=1;jettySize=auto;html=1;" parent="WIyWlLk6GJQsqaUBKTNV-1" source="EfqY29eq7TwNeIXBNxIb-5" target="EfqY29eq7TwNeIXBNxIb-8" edge="1">
          <mxGeometry relative="1" as="geometry"/>
        </mxCell>
        <mxCell id="EfqY29eq7TwNeIXBNxIb-5" value="&lt;span style=&quot;white-space: normal&quot;&gt;Does the usernames&lt;/span&gt;&lt;br style=&quot;white-space: normal&quot;&gt;&lt;span style=&quot;white-space: normal&quot;&gt;exist on database&lt;/span&gt;" style="rounded=1;whiteSpace=wrap;html=1;" parent="WIyWlLk6GJQsqaUBKTNV-1" vertex="1">
          <mxGeometry x="430" y="130" width="120" height="60" as="geometry"/>
        </mxCell>
        <mxCell id="EfqY29eq7TwNeIXBNxIb-10" style="edgeStyle=orthogonalEdgeStyle;rounded=0;orthogonalLoop=1;jettySize=auto;html=1;entryX=0.5;entryY=0;entryDx=0;entryDy=0;" parent="WIyWlLk6GJQsqaUBKTNV-1" source="EfqY29eq7TwNeIXBNxIb-8" target="EfqY29eq7TwNeIXBNxIb-0" edge="1">
          <mxGeometry relative="1" as="geometry">
            <mxPoint x="710" y="70" as="targetPoint"/>
            <Array as="points">
              <mxPoint x="750" y="160"/>
              <mxPoint x="750" y="70"/>
              <mxPoint x="350" y="70"/>
            </Array>
          </mxGeometry>
        </mxCell>
        <mxCell id="EfqY29eq7TwNeIXBNxIb-16" value="" style="edgeStyle=orthogonalEdgeStyle;rounded=0;orthogonalLoop=1;jettySize=auto;html=1;" parent="WIyWlLk6GJQsqaUBKTNV-1" source="EfqY29eq7TwNeIXBNxIb-8" target="EfqY29eq7TwNeIXBNxIb-15" edge="1">
          <mxGeometry relative="1" as="geometry"/>
        </mxCell>
        <mxCell id="EfqY29eq7TwNeIXBNxIb-8" value="" style="rhombus;whiteSpace=wrap;html=1;" parent="WIyWlLk6GJQsqaUBKTNV-1" vertex="1">
          <mxGeometry x="580" y="120" width="80" height="80" as="geometry"/>
        </mxCell>
        <mxCell id="EfqY29eq7TwNeIXBNxIb-12" value="F" style="text;html=1;align=center;verticalAlign=middle;resizable=0;points=[];autosize=1;" parent="WIyWlLk6GJQsqaUBKTNV-1" vertex="1">
          <mxGeometry x="620" y="200" width="20" height="20" as="geometry"/>
        </mxCell>
        <mxCell id="EfqY29eq7TwNeIXBNxIb-13" value="T" style="text;html=1;strokeColor=none;fillColor=none;align=center;verticalAlign=middle;whiteSpace=wrap;rounded=0;" parent="WIyWlLk6GJQsqaUBKTNV-1" vertex="1">
          <mxGeometry x="660" y="140" width="40" height="20" as="geometry"/>
        </mxCell>
        <mxCell id="EfqY29eq7TwNeIXBNxIb-17" style="edgeStyle=orthogonalEdgeStyle;rounded=0;orthogonalLoop=1;jettySize=auto;html=1;entryX=1;entryY=0.375;entryDx=0;entryDy=0;entryPerimeter=0;" parent="WIyWlLk6GJQsqaUBKTNV-1" source="EfqY29eq7TwNeIXBNxIb-15" target="Qnue6MiDW5Upj04BYutE-7" edge="1">
          <mxGeometry relative="1" as="geometry"/>
        </mxCell>
        <mxCell id="EfqY29eq7TwNeIXBNxIb-15" value="&quot;Set Password&quot;" style="shape=parallelogram;perimeter=parallelogramPerimeter;whiteSpace=wrap;html=1;" parent="WIyWlLk6GJQsqaUBKTNV-1" vertex="1">
          <mxGeometry x="560" y="230" width="120" height="60" as="geometry"/>
        </mxCell>
        <mxCell id="EfqY29eq7TwNeIXBNxIb-25" value="" style="edgeStyle=orthogonalEdgeStyle;rounded=0;orthogonalLoop=1;jettySize=auto;html=1;" parent="WIyWlLk6GJQsqaUBKTNV-1" source="EfqY29eq7TwNeIXBNxIb-18" target="EfqY29eq7TwNeIXBNxIb-24" edge="1">
          <mxGeometry relative="1" as="geometry"/>
        </mxCell>
        <mxCell id="EfqY29eq7TwNeIXBNxIb-18" value="Player 1 roll 2&amp;nbsp;&lt;br&gt;6 sided Dice&lt;br&gt;( 2 random numbers between&amp;nbsp; 1 and 6)" style="whiteSpace=wrap;html=1;aspect=fixed;" parent="WIyWlLk6GJQsqaUBKTNV-1" vertex="1">
          <mxGeometry x="30" y="380" width="90" height="90" as="geometry"/>
        </mxCell>
        <mxCell id="cah8BzL9Fn36md8GXg67-19" value="" style="edgeStyle=orthogonalEdgeStyle;rounded=0;orthogonalLoop=1;jettySize=auto;html=1;" edge="1" parent="WIyWlLk6GJQsqaUBKTNV-1" source="EfqY29eq7TwNeIXBNxIb-24">
          <mxGeometry relative="1" as="geometry">
            <mxPoint x="350" y="425" as="targetPoint"/>
          </mxGeometry>
        </mxCell>
        <mxCell id="EfqY29eq7TwNeIXBNxIb-24" value="Player 2 roll 2&amp;nbsp;&lt;br&gt;6 sided Dice&lt;br&gt;( 2 random numbers between&amp;nbsp; 1 and 6)" style="whiteSpace=wrap;html=1;aspect=fixed;" parent="WIyWlLk6GJQsqaUBKTNV-1" vertex="1">
          <mxGeometry x="180" y="380" width="90" height="90" as="geometry"/>
        </mxCell>
        <mxCell id="EfqY29eq7TwNeIXBNxIb-40" value="" style="edgeStyle=orthogonalEdgeStyle;rounded=0;orthogonalLoop=1;jettySize=auto;html=1;" parent="WIyWlLk6GJQsqaUBKTNV-1" source="EfqY29eq7TwNeIXBNxIb-27" target="EfqY29eq7TwNeIXBNxIb-33" edge="1">
          <mxGeometry relative="1" as="geometry"/>
        </mxCell>
        <mxCell id="EfqY29eq7TwNeIXBNxIb-51" value="" style="edgeStyle=orthogonalEdgeStyle;rounded=0;orthogonalLoop=1;jettySize=auto;html=1;" parent="WIyWlLk6GJQsqaUBKTNV-1" source="EfqY29eq7TwNeIXBNxIb-27" target="EfqY29eq7TwNeIXBNxIb-49" edge="1">
          <mxGeometry relative="1" as="geometry"/>
        </mxCell>
        <mxCell id="EfqY29eq7TwNeIXBNxIb-27" value="IS player 1&#39;s total even?" style="rhombus;whiteSpace=wrap;html=1;" parent="WIyWlLk6GJQsqaUBKTNV-1" vertex="1">
          <mxGeometry x="920" y="385" width="90" height="80" as="geometry"/>
        </mxCell>
        <mxCell id="EfqY29eq7TwNeIXBNxIb-28" value="F" style="text;html=1;align=center;verticalAlign=middle;resizable=0;points=[];autosize=1;" parent="WIyWlLk6GJQsqaUBKTNV-1" vertex="1">
          <mxGeometry x="980" y="470" width="20" height="20" as="geometry"/>
        </mxCell>
        <mxCell id="EfqY29eq7TwNeIXBNxIb-29" value="T" style="text;html=1;strokeColor=none;fillColor=none;align=center;verticalAlign=middle;whiteSpace=wrap;rounded=0;" parent="WIyWlLk6GJQsqaUBKTNV-1" vertex="1">
          <mxGeometry x="1015" y="380" width="40" height="20" as="geometry"/>
        </mxCell>
        <mxCell id="EfqY29eq7TwNeIXBNxIb-42" value="" style="edgeStyle=orthogonalEdgeStyle;rounded=0;orthogonalLoop=1;jettySize=auto;html=1;" parent="WIyWlLk6GJQsqaUBKTNV-1" source="EfqY29eq7TwNeIXBNxIb-33" target="EfqY29eq7TwNeIXBNxIb-41" edge="1">
          <mxGeometry relative="1" as="geometry"/>
        </mxCell>
        <mxCell id="EfqY29eq7TwNeIXBNxIb-33" value="Take 5 Points from player1&amp;nbsp;" style="whiteSpace=wrap;html=1;aspect=fixed;" parent="WIyWlLk6GJQsqaUBKTNV-1" vertex="1">
          <mxGeometry x="935" y="520" width="80" height="80" as="geometry"/>
        </mxCell>
        <mxCell id="EfqY29eq7TwNeIXBNxIb-44" value="" style="edgeStyle=orthogonalEdgeStyle;rounded=0;orthogonalLoop=1;jettySize=auto;html=1;" parent="WIyWlLk6GJQsqaUBKTNV-1" edge="1">
          <mxGeometry relative="1" as="geometry">
            <mxPoint x="1030" y="690" as="targetPoint"/>
            <mxPoint x="999.6333333333337" y="690.3333333333335" as="sourcePoint"/>
          </mxGeometry>
        </mxCell>
        <mxCell id="EfqY29eq7TwNeIXBNxIb-48" value="" style="edgeStyle=orthogonalEdgeStyle;rounded=0;orthogonalLoop=1;jettySize=auto;html=1;exitX=1;exitY=0.5;exitDx=0;exitDy=0;" parent="WIyWlLk6GJQsqaUBKTNV-1" source="EfqY29eq7TwNeIXBNxIb-41" target="EfqY29eq7TwNeIXBNxIb-47" edge="1">
          <mxGeometry relative="1" as="geometry">
            <mxPoint x="999.6333333333337" y="690.3333333333335" as="sourcePoint"/>
          </mxGeometry>
        </mxCell>
        <mxCell id="EfqY29eq7TwNeIXBNxIb-41" value="IS player 1&#39;s total under 0 ?" style="rhombus;whiteSpace=wrap;html=1;" parent="WIyWlLk6GJQsqaUBKTNV-1" vertex="1">
          <mxGeometry x="850" y="640" width="110" height="100" as="geometry"/>
        </mxCell>
        <mxCell id="cah8BzL9Fn36md8GXg67-49" value="" style="edgeStyle=orthogonalEdgeStyle;rounded=0;orthogonalLoop=1;jettySize=auto;html=1;entryX=0.365;entryY=0.835;entryDx=0;entryDy=0;entryPerimeter=0;" edge="1" parent="WIyWlLk6GJQsqaUBKTNV-1" source="EfqY29eq7TwNeIXBNxIb-47" target="EfqY29eq7TwNeIXBNxIb-54">
          <mxGeometry relative="1" as="geometry">
            <mxPoint x="1180" y="460" as="targetPoint"/>
            <Array as="points">
              <mxPoint x="1150" y="690"/>
              <mxPoint x="1150" y="460"/>
              <mxPoint x="1263" y="460"/>
            </Array>
          </mxGeometry>
        </mxCell>
        <mxCell id="EfqY29eq7TwNeIXBNxIb-47" value="Set score 0" style="whiteSpace=wrap;html=1;aspect=fixed;" parent="WIyWlLk6GJQsqaUBKTNV-1" vertex="1">
          <mxGeometry x="1030" y="650" width="80" height="80" as="geometry"/>
        </mxCell>
        <mxCell id="cah8BzL9Fn36md8GXg67-51" value="" style="edgeStyle=orthogonalEdgeStyle;rounded=0;orthogonalLoop=1;jettySize=auto;html=1;entryX=0;entryY=0.5;entryDx=0;entryDy=0;" edge="1" parent="WIyWlLk6GJQsqaUBKTNV-1" source="EfqY29eq7TwNeIXBNxIb-49" target="EfqY29eq7TwNeIXBNxIb-54">
          <mxGeometry relative="1" as="geometry">
            <mxPoint x="1220" y="425" as="targetPoint"/>
          </mxGeometry>
        </mxCell>
        <mxCell id="EfqY29eq7TwNeIXBNxIb-49" value="Give player 1 10 points" style="whiteSpace=wrap;html=1;aspect=fixed;" parent="WIyWlLk6GJQsqaUBKTNV-1" vertex="1">
          <mxGeometry x="1060" y="385" width="80" height="80" as="geometry"/>
        </mxCell>
        <mxCell id="EfqY29eq7TwNeIXBNxIb-52" value="" style="edgeStyle=orthogonalEdgeStyle;rounded=0;orthogonalLoop=1;jettySize=auto;html=1;" parent="WIyWlLk6GJQsqaUBKTNV-1" source="EfqY29eq7TwNeIXBNxIb-54" target="EfqY29eq7TwNeIXBNxIb-58" edge="1">
          <mxGeometry relative="1" as="geometry"/>
        </mxCell>
        <mxCell id="EfqY29eq7TwNeIXBNxIb-53" value="" style="edgeStyle=orthogonalEdgeStyle;rounded=0;orthogonalLoop=1;jettySize=auto;html=1;" parent="WIyWlLk6GJQsqaUBKTNV-1" source="EfqY29eq7TwNeIXBNxIb-54" target="EfqY29eq7TwNeIXBNxIb-65" edge="1">
          <mxGeometry relative="1" as="geometry"/>
        </mxCell>
        <mxCell id="EfqY29eq7TwNeIXBNxIb-54" value="IS player 2&#39;s total even?" style="rhombus;whiteSpace=wrap;html=1;" parent="WIyWlLk6GJQsqaUBKTNV-1" vertex="1">
          <mxGeometry x="1230" y="390" width="90" height="80" as="geometry"/>
        </mxCell>
        <mxCell id="EfqY29eq7TwNeIXBNxIb-55" value="F" style="text;html=1;align=center;verticalAlign=middle;resizable=0;points=[];autosize=1;" parent="WIyWlLk6GJQsqaUBKTNV-1" vertex="1">
          <mxGeometry x="1280" y="475" width="20" height="20" as="geometry"/>
        </mxCell>
        <mxCell id="EfqY29eq7TwNeIXBNxIb-56" value="T" style="text;html=1;strokeColor=none;fillColor=none;align=center;verticalAlign=middle;whiteSpace=wrap;rounded=0;" parent="WIyWlLk6GJQsqaUBKTNV-1" vertex="1">
          <mxGeometry x="1315" y="385" width="40" height="20" as="geometry"/>
        </mxCell>
        <mxCell id="EfqY29eq7TwNeIXBNxIb-57" value="" style="edgeStyle=orthogonalEdgeStyle;rounded=0;orthogonalLoop=1;jettySize=auto;html=1;" parent="WIyWlLk6GJQsqaUBKTNV-1" source="EfqY29eq7TwNeIXBNxIb-58" target="EfqY29eq7TwNeIXBNxIb-61" edge="1">
          <mxGeometry relative="1" as="geometry"/>
        </mxCell>
        <mxCell id="EfqY29eq7TwNeIXBNxIb-58" value="Take 5 Points from player 2" style="whiteSpace=wrap;html=1;aspect=fixed;" parent="WIyWlLk6GJQsqaUBKTNV-1" vertex="1">
          <mxGeometry x="1235" y="525" width="80" height="80" as="geometry"/>
        </mxCell>
        <mxCell id="EfqY29eq7TwNeIXBNxIb-59" value="" style="edgeStyle=orthogonalEdgeStyle;rounded=0;orthogonalLoop=1;jettySize=auto;html=1;" parent="WIyWlLk6GJQsqaUBKTNV-1" source="EfqY29eq7TwNeIXBNxIb-61" edge="1">
          <mxGeometry relative="1" as="geometry">
            <mxPoint x="1330" y="695" as="targetPoint"/>
          </mxGeometry>
        </mxCell>
        <mxCell id="EfqY29eq7TwNeIXBNxIb-60" value="" style="edgeStyle=orthogonalEdgeStyle;rounded=0;orthogonalLoop=1;jettySize=auto;html=1;" parent="WIyWlLk6GJQsqaUBKTNV-1" source="EfqY29eq7TwNeIXBNxIb-61" edge="1">
          <mxGeometry relative="1" as="geometry">
            <mxPoint x="1330" y="695.3333333333335" as="targetPoint"/>
          </mxGeometry>
        </mxCell>
        <mxCell id="EfqY29eq7TwNeIXBNxIb-61" value="IS player 2&#39;s total under 0 ?" style="rhombus;whiteSpace=wrap;html=1;" parent="WIyWlLk6GJQsqaUBKTNV-1" vertex="1">
          <mxGeometry x="1190" y="645" width="110" height="100" as="geometry"/>
        </mxCell>
        <mxCell id="EfqY29eq7TwNeIXBNxIb-63" value="T" style="text;html=1;strokeColor=none;fillColor=none;align=center;verticalAlign=middle;whiteSpace=wrap;rounded=0;" parent="WIyWlLk6GJQsqaUBKTNV-1" vertex="1">
          <mxGeometry x="1290" y="675" width="40" height="20" as="geometry"/>
        </mxCell>
        <mxCell id="cah8BzL9Fn36md8GXg67-54" value="" style="edgeStyle=orthogonalEdgeStyle;rounded=0;orthogonalLoop=1;jettySize=auto;html=1;entryX=0;entryY=0.75;entryDx=0;entryDy=0;" edge="1" parent="WIyWlLk6GJQsqaUBKTNV-1" source="EfqY29eq7TwNeIXBNxIb-64" target="EfqY29eq7TwNeIXBNxIb-65">
          <mxGeometry relative="1" as="geometry">
            <mxPoint x="1480" y="460" as="targetPoint"/>
            <Array as="points">
              <mxPoint x="1460" y="694"/>
              <mxPoint x="1460" y="460"/>
              <mxPoint x="1520" y="460"/>
              <mxPoint x="1520" y="434"/>
            </Array>
          </mxGeometry>
        </mxCell>
        <mxCell id="EfqY29eq7TwNeIXBNxIb-64" value="Set score 0" style="whiteSpace=wrap;html=1;aspect=fixed;" parent="WIyWlLk6GJQsqaUBKTNV-1" vertex="1">
          <mxGeometry x="1330" y="655" width="80" height="80" as="geometry"/>
        </mxCell>
        <mxCell id="EfqY29eq7TwNeIXBNxIb-71" value="" style="edgeStyle=orthogonalEdgeStyle;rounded=0;orthogonalLoop=1;jettySize=auto;html=1;" parent="WIyWlLk6GJQsqaUBKTNV-1" source="EfqY29eq7TwNeIXBNxIb-65" target="EfqY29eq7TwNeIXBNxIb-70" edge="1">
          <mxGeometry relative="1" as="geometry"/>
        </mxCell>
        <mxCell id="EfqY29eq7TwNeIXBNxIb-65" value="Give player 2 10 points" style="whiteSpace=wrap;html=1;aspect=fixed;" parent="WIyWlLk6GJQsqaUBKTNV-1" vertex="1">
          <mxGeometry x="1550" y="375" width="80" height="80" as="geometry"/>
        </mxCell>
        <mxCell id="EfqY29eq7TwNeIXBNxIb-74" style="edgeStyle=orthogonalEdgeStyle;rounded=0;orthogonalLoop=1;jettySize=auto;html=1;entryX=1;entryY=0.5;entryDx=0;entryDy=0;" parent="WIyWlLk6GJQsqaUBKTNV-1" source="EfqY29eq7TwNeIXBNxIb-70" target="EfqY29eq7TwNeIXBNxIb-73" edge="1">
          <mxGeometry relative="1" as="geometry">
            <Array as="points">
              <mxPoint x="1380" y="800"/>
            </Array>
          </mxGeometry>
        </mxCell>
        <mxCell id="EfqY29eq7TwNeIXBNxIb-70" value="Round = round +1" style="whiteSpace=wrap;html=1;aspect=fixed;" parent="WIyWlLk6GJQsqaUBKTNV-1" vertex="1">
          <mxGeometry x="1550" y="560" width="80" height="80" as="geometry"/>
        </mxCell>
        <mxCell id="EfqY29eq7TwNeIXBNxIb-85" value="" style="edgeStyle=orthogonalEdgeStyle;rounded=0;orthogonalLoop=1;jettySize=auto;html=1;" parent="WIyWlLk6GJQsqaUBKTNV-1" source="EfqY29eq7TwNeIXBNxIb-73" edge="1">
          <mxGeometry relative="1" as="geometry">
            <mxPoint x="74.5882352941178" y="474.5882352941178" as="targetPoint"/>
          </mxGeometry>
        </mxCell>
        <mxCell id="cah8BzL9Fn36md8GXg67-5" value="" style="edgeStyle=orthogonalEdgeStyle;rounded=0;orthogonalLoop=1;jettySize=auto;html=1;" edge="1" parent="WIyWlLk6GJQsqaUBKTNV-1" source="EfqY29eq7TwNeIXBNxIb-73" target="cah8BzL9Fn36md8GXg67-1">
          <mxGeometry relative="1" as="geometry"/>
        </mxCell>
        <mxCell id="EfqY29eq7TwNeIXBNxIb-73" value="Round =&amp;gt; 5" style="rhombus;whiteSpace=wrap;html=1;" parent="WIyWlLk6GJQsqaUBKTNV-1" vertex="1">
          <mxGeometry x="190" y="760" width="80" height="80" as="geometry"/>
        </mxCell>
        <mxCell id="EfqY29eq7TwNeIXBNxIb-79" value="F" style="text;html=1;align=center;verticalAlign=middle;resizable=0;points=[];autosize=1;" parent="WIyWlLk6GJQsqaUBKTNV-1" vertex="1">
          <mxGeometry x="170" y="770" width="20" height="20" as="geometry"/>
        </mxCell>
        <mxCell id="EfqY29eq7TwNeIXBNxIb-80" value="T" style="text;html=1;strokeColor=none;fillColor=none;align=center;verticalAlign=middle;whiteSpace=wrap;rounded=0;" parent="WIyWlLk6GJQsqaUBKTNV-1" vertex="1">
          <mxGeometry x="230" y="840" width="40" height="20" as="geometry"/>
        </mxCell>
        <mxCell id="cah8BzL9Fn36md8GXg67-11" value="" style="edgeStyle=orthogonalEdgeStyle;rounded=0;orthogonalLoop=1;jettySize=auto;html=1;" edge="1" parent="WIyWlLk6GJQsqaUBKTNV-1" source="cah8BzL9Fn36md8GXg67-1" target="cah8BzL9Fn36md8GXg67-10">
          <mxGeometry relative="1" as="geometry"/>
        </mxCell>
        <mxCell id="cah8BzL9Fn36md8GXg67-1" value="Are both having same score &amp;gt;" style="rhombus;whiteSpace=wrap;html=1;" vertex="1" parent="WIyWlLk6GJQsqaUBKTNV-1">
          <mxGeometry x="190" y="860" width="80" height="80" as="geometry"/>
        </mxCell>
        <mxCell id="cah8BzL9Fn36md8GXg67-2" value="T" style="text;html=1;strokeColor=none;fillColor=none;align=center;verticalAlign=middle;whiteSpace=wrap;rounded=0;" vertex="1" parent="WIyWlLk6GJQsqaUBKTNV-1">
          <mxGeometry x="150" y="870" width="40" height="20" as="geometry"/>
        </mxCell>
        <mxCell id="cah8BzL9Fn36md8GXg67-3" value="F" style="text;html=1;align=center;verticalAlign=middle;resizable=0;points=[];autosize=1;" vertex="1" parent="WIyWlLk6GJQsqaUBKTNV-1">
          <mxGeometry x="270" y="860" width="20" height="20" as="geometry"/>
        </mxCell>
        <mxCell id="cah8BzL9Fn36md8GXg67-8" value="" style="endArrow=none;html=1;entryX=0;entryY=0.5;entryDx=0;entryDy=0;" edge="1" parent="WIyWlLk6GJQsqaUBKTNV-1" target="cah8BzL9Fn36md8GXg67-1">
          <mxGeometry width="50" height="50" relative="1" as="geometry">
            <mxPoint x="50" y="900" as="sourcePoint"/>
            <mxPoint x="60" y="960" as="targetPoint"/>
          </mxGeometry>
        </mxCell>
        <mxCell id="cah8BzL9Fn36md8GXg67-9" value="" style="endArrow=classic;html=1;entryX=0.25;entryY=1;entryDx=0;entryDy=0;" edge="1" parent="WIyWlLk6GJQsqaUBKTNV-1" target="EfqY29eq7TwNeIXBNxIb-18">
          <mxGeometry width="50" height="50" relative="1" as="geometry">
            <mxPoint x="50" y="900" as="sourcePoint"/>
            <mxPoint x="50" y="560" as="targetPoint"/>
          </mxGeometry>
        </mxCell>
        <mxCell id="cah8BzL9Fn36md8GXg67-14" value="" style="edgeStyle=orthogonalEdgeStyle;rounded=0;orthogonalLoop=1;jettySize=auto;html=1;" edge="1" parent="WIyWlLk6GJQsqaUBKTNV-1" source="cah8BzL9Fn36md8GXg67-10" target="cah8BzL9Fn36md8GXg67-12">
          <mxGeometry relative="1" as="geometry"/>
        </mxCell>
        <mxCell id="cah8BzL9Fn36md8GXg67-10" value="winner = player with the highest score" style="whiteSpace=wrap;html=1;aspect=fixed;" vertex="1" parent="WIyWlLk6GJQsqaUBKTNV-1">
          <mxGeometry x="300" y="860" width="80" height="80" as="geometry"/>
        </mxCell>
        <mxCell id="cah8BzL9Fn36md8GXg67-56" value="" style="edgeStyle=orthogonalEdgeStyle;rounded=0;orthogonalLoop=1;jettySize=auto;html=1;" edge="1" parent="WIyWlLk6GJQsqaUBKTNV-1" source="cah8BzL9Fn36md8GXg67-12" target="cah8BzL9Fn36md8GXg67-55">
          <mxGeometry relative="1" as="geometry"/>
        </mxCell>
        <mxCell id="cah8BzL9Fn36md8GXg67-12" value="print(&#39;the winner is&quot; +winner)" style="shape=parallelogram;perimeter=parallelogramPerimeter;whiteSpace=wrap;html=1;" vertex="1" parent="WIyWlLk6GJQsqaUBKTNV-1">
          <mxGeometry x="410" y="870" width="150" height="60" as="geometry"/>
        </mxCell>
        <mxCell id="cah8BzL9Fn36md8GXg67-22" value="Text" style="text;html=1;align=center;verticalAlign=middle;resizable=0;points=[];autosize=1;" vertex="1" parent="WIyWlLk6GJQsqaUBKTNV-1">
          <mxGeometry x="950" y="435" width="40" height="20" as="geometry"/>
        </mxCell>
        <mxCell id="cah8BzL9Fn36md8GXg67-27" value="" style="edgeStyle=orthogonalEdgeStyle;rounded=0;orthogonalLoop=1;jettySize=auto;html=1;" edge="1" parent="WIyWlLk6GJQsqaUBKTNV-1" source="cah8BzL9Fn36md8GXg67-25" target="cah8BzL9Fn36md8GXg67-26">
          <mxGeometry relative="1" as="geometry"/>
        </mxCell>
        <mxCell id="cah8BzL9Fn36md8GXg67-36" value="" style="edgeStyle=orthogonalEdgeStyle;rounded=0;orthogonalLoop=1;jettySize=auto;html=1;entryX=0;entryY=1;entryDx=0;entryDy=0;" edge="1" parent="WIyWlLk6GJQsqaUBKTNV-1" source="cah8BzL9Fn36md8GXg67-25" target="cah8BzL9Fn36md8GXg67-33">
          <mxGeometry relative="1" as="geometry">
            <mxPoint x="670" y="540" as="targetPoint"/>
            <Array as="points">
              <mxPoint x="410" y="540"/>
              <mxPoint x="695" y="540"/>
            </Array>
          </mxGeometry>
        </mxCell>
        <mxCell id="cah8BzL9Fn36md8GXg67-25" value="Did player 1 roll a double ?" style="rhombus;whiteSpace=wrap;html=1;" vertex="1" parent="WIyWlLk6GJQsqaUBKTNV-1">
          <mxGeometry x="350" y="370" width="120" height="110" as="geometry"/>
        </mxCell>
        <mxCell id="cah8BzL9Fn36md8GXg67-31" value="" style="edgeStyle=orthogonalEdgeStyle;rounded=0;orthogonalLoop=1;jettySize=auto;html=1;" edge="1" parent="WIyWlLk6GJQsqaUBKTNV-1" source="cah8BzL9Fn36md8GXg67-26">
          <mxGeometry relative="1" as="geometry">
            <mxPoint x="670" y="425" as="targetPoint"/>
          </mxGeometry>
        </mxCell>
        <mxCell id="cah8BzL9Fn36md8GXg67-26" value="Player 1 rolls one more time and then add score to total" style="whiteSpace=wrap;html=1;aspect=fixed;" vertex="1" parent="WIyWlLk6GJQsqaUBKTNV-1">
          <mxGeometry x="510" y="385" width="80" height="80" as="geometry"/>
        </mxCell>
        <mxCell id="cah8BzL9Fn36md8GXg67-29" value="T" style="text;html=1;strokeColor=none;fillColor=none;align=center;verticalAlign=middle;whiteSpace=wrap;rounded=0;" vertex="1" parent="WIyWlLk6GJQsqaUBKTNV-1">
          <mxGeometry x="465" y="390" width="40" height="20" as="geometry"/>
        </mxCell>
        <mxCell id="cah8BzL9Fn36md8GXg67-39" value="" style="edgeStyle=orthogonalEdgeStyle;rounded=0;orthogonalLoop=1;jettySize=auto;html=1;entryX=0;entryY=1;entryDx=0;entryDy=0;" edge="1" parent="WIyWlLk6GJQsqaUBKTNV-1" source="cah8BzL9Fn36md8GXg67-33" target="EfqY29eq7TwNeIXBNxIb-27">
          <mxGeometry relative="1" as="geometry">
            <mxPoint x="920" y="460" as="targetPoint"/>
            <Array as="points">
              <mxPoint x="720" y="530"/>
              <mxPoint x="845" y="530"/>
              <mxPoint x="845" y="480"/>
              <mxPoint x="943" y="480"/>
            </Array>
          </mxGeometry>
        </mxCell>
        <mxCell id="cah8BzL9Fn36md8GXg67-44" value="" style="edgeStyle=orthogonalEdgeStyle;rounded=0;orthogonalLoop=1;jettySize=auto;html=1;" edge="1" parent="WIyWlLk6GJQsqaUBKTNV-1" source="cah8BzL9Fn36md8GXg67-33" target="cah8BzL9Fn36md8GXg67-42">
          <mxGeometry relative="1" as="geometry"/>
        </mxCell>
        <mxCell id="cah8BzL9Fn36md8GXg67-33" value="Did player 2 roll a double&amp;nbsp;" style="rhombus;whiteSpace=wrap;html=1;" vertex="1" parent="WIyWlLk6GJQsqaUBKTNV-1">
          <mxGeometry x="670" y="372.5" width="110" height="105" as="geometry"/>
        </mxCell>
        <mxCell id="cah8BzL9Fn36md8GXg67-34" value="F" style="text;html=1;strokeColor=none;fillColor=none;align=center;verticalAlign=middle;whiteSpace=wrap;rounded=0;" vertex="1" parent="WIyWlLk6GJQsqaUBKTNV-1">
          <mxGeometry x="420" y="477.5" width="40" height="20" as="geometry"/>
        </mxCell>
        <mxCell id="cah8BzL9Fn36md8GXg67-40" value="T" style="text;html=1;strokeColor=none;fillColor=none;align=center;verticalAlign=middle;whiteSpace=wrap;rounded=0;" vertex="1" parent="WIyWlLk6GJQsqaUBKTNV-1">
          <mxGeometry x="730" y="372.5" width="40" height="20" as="geometry"/>
        </mxCell>
        <mxCell id="cah8BzL9Fn36md8GXg67-41" value="F" style="text;html=1;strokeColor=none;fillColor=none;align=center;verticalAlign=middle;whiteSpace=wrap;rounded=0;" vertex="1" parent="WIyWlLk6GJQsqaUBKTNV-1">
          <mxGeometry x="720" y="475" width="40" height="20" as="geometry"/>
        </mxCell>
        <mxCell id="cah8BzL9Fn36md8GXg67-45" value="" style="edgeStyle=orthogonalEdgeStyle;rounded=0;orthogonalLoop=1;jettySize=auto;html=1;" edge="1" parent="WIyWlLk6GJQsqaUBKTNV-1" source="cah8BzL9Fn36md8GXg67-42" target="EfqY29eq7TwNeIXBNxIb-27">
          <mxGeometry relative="1" as="geometry"/>
        </mxCell>
        <mxCell id="cah8BzL9Fn36md8GXg67-42" value="Player 2 rolls one more time and then add score to total" style="whiteSpace=wrap;html=1;aspect=fixed;" vertex="1" parent="WIyWlLk6GJQsqaUBKTNV-1">
          <mxGeometry x="800" y="385" width="80" height="80" as="geometry"/>
        </mxCell>
        <mxCell id="cah8BzL9Fn36md8GXg67-55" value="Save score to the database" style="whiteSpace=wrap;html=1;aspect=fixed;" vertex="1" parent="WIyWlLk6GJQsqaUBKTNV-1">
          <mxGeometry x="640" y="860" width="80" height="80" as="geometry"/>
        </mxCell>
        <mxCell id="cah8BzL9Fn36md8GXg67-57" value="" style="endArrow=classic;html=1;" edge="1" parent="WIyWlLk6GJQsqaUBKTNV-1" source="cah8BzL9Fn36md8GXg67-55">
          <mxGeometry width="50" height="50" relative="1" as="geometry">
            <mxPoint x="720" y="950" as="sourcePoint"/>
            <mxPoint x="790.7106781186548" y="900" as="targetPoint"/>
          </mxGeometry>
        </mxCell>
        <mxCell id="cah8BzL9Fn36md8GXg67-58" value="if users score is" style="whiteSpace=wrap;html=1;aspect=fixed;" vertex="1" parent="WIyWlLk6GJQsqaUBKTNV-1">
          <mxGeometry x="800" y="860" width="80" height="80" as="geometry"/>
        </mxCell>
      </root>
    </mxGraphModel>
  </diagram>
</mxfile>
